{
	"asset":{
		"generator":"Khronos glTF Blender I/O v5.2.39",
		"version":"2.0"
	},
	"extensionsUsed":[
		"KHR_materials_transmission",
		"KHR_materials_specular"
	],
	"scene":0,
	"scenes":[
		{
			"name":"Scene",
			"nodes":[
				0,
				1,
				2,
				3,
				4,
				5,
				6,
				7,
				8,
				9,
				10,
				11,
				12,
				13,
				14,
				15,
				16,
				17,
				18,
				19,
				20,
				21,
				22,
				24
			]
		}
	],
	"nodes":[
		{
			"mesh":0,
			"name":"balls",
			"rotation":[
				0.09039513766765594,
				0.8245213627815247,
				-0.37366679310798645,
				0.415170282125473
			],
			"scale":[
				0.02990690991282463,
				0.029906919226050377,
				0.02990691550076008
			],
			"translation":[
				-0.28316590189933777,
				3.0657007694244385,
				-0.37039515376091003
			]
		},
		{
			"mesh":1,
			"name":"bar",
			"rotation":[
				0.48721587657928467,
				-0.05220729112625122,
				0.6383336782455444,
				0.5936540961265564
			],
			"scale":[
				0.03141963481903076,
				0.03141963109374046,
				0.031419649720191956
			],
			"translation":[
				0.13778634369373322,
				3.1776552200317383,
				-0.2547633945941925
			]
		},
		{
			"mesh":2,
			"name":"candle_0",
			"scale":[
				0.03692341968417168,
				0.03692341968417168,
				0.036923423409461975
			],
			"translation":[
				0.002721649594604969,
				2.955209493637085,
				0.0011578848352655768
			]
		},
		{
			"mesh":3,
			"name":"candle_1",
			"scale":[
				0.04347214475274086,
				0.043472133576869965,
				0.04347214475274086
			],
			"translation":[
				0.002565537579357624,
				2.9551990032196045,
				0.001370315789245069
			]
		},
		{
			"mesh":4,
			"name":"candle_2",
			"scale":[
				0.03538643568754196,
				0.035386428236961365,
				0.03538643568754196
			],
			"translation":[
				-0.0033978624269366264,
				3.007117509841919,
				-0.008623714558780193
			]
		},
		{
			"mesh":5,
			"name":"candle_3",
			"scale":[
				0.03892047330737114,
				0.038920484483242035,
				0.038920480757951736
			],
			"translation":[
				0.0027816789224743843,
				2.9552061557769775,
				0.001136047183535993
			]
		},
		{
			"mesh":6,
			"name":"candle_4",
			"scale":[
				0.03879616782069206,
				0.03879616782069206,
				0.03879616782069206
			],
			"translation":[
				0.012894240207970142,
				2.9552063941955566,
				0.03405901417136192
			]
		},
		{
			"mesh":7,
			"name":"candle_5",
			"scale":[
				0.03810252249240875,
				0.03810252249240875,
				0.03810252249240875
			],
			"translation":[
				0.0029719779267907143,
				2.955207586288452,
				0.0011236568680033088
			]
		},
		{
			"mesh":8,
			"name":"candle_6",
			"scale":[
				0.039382077753543854,
				0.039382077753543854,
				0.039382077753543854
			],
			"translation":[
				0.01977822557091713,
				2.9552056789398193,
				0.0011236568680033088
			]
		},
		{
			"mesh":9,
			"name":"candle_7",
			"scale":[
				0.03871941193938255,
				0.03871941193938255,
				0.03871941193938255
			],
			"translation":[
				-0.0020684553310275078,
				2.9552066326141357,
				0.0011236568680033088
			]
		},
		{
			"mesh":10,
			"name":"candle_8",
			"scale":[
				0.03909934312105179,
				0.03909934312105179,
				0.03909934312105179
			],
			"translation":[
				0.0004999982193112373,
				2.9775702953338623,
				0.004765932913869619
			]
		},
		{
			"mesh":11,
			"name":"candle_9",
			"scale":[
				0.03907724842429161,
				0.03907724842429161,
				0.03907724842429161
			],
			"translation":[
				0.001118411310017109,
				2.969804286956787,
				-0.032622408121824265
			]
		},
		{
			"mesh":12,
			"name":"chandel",
			"rotation":[
				-0.70710688829422,
				0,
				0,
				0.7071066498756409
			],
			"scale":[
				-0.024765465408563614,
				-0.024765459820628166,
				-0.024765459820628166
			],
			"translation":[
				-0.01517793070524931,
				3.0722782611846924,
				0.04997849836945534
			]
		},
		{
			"mesh":13,
			"name":"cherry",
			"scale":[
				0.033663637936115265,
				0.033663637936115265,
				0.033663637936115265
			],
			"translation":[
				0.5898615121841431,
				3.0561130046844482,
				0.029960421845316887
			]
		},
		{
			"mesh":14,
			"name":"icing_rectangle",
			"scale":[
				1.2589536905288696,
				1.1461542844772339,
				1.2589536905288696
			],
			"translation":[
				-0.0060051605105400085,
				-1.2525426149368286,
				-0.0015855677193030715
			]
		},
		{
			"mesh":15,
			"name":"icing_round",
			"scale":[
				1.1986082792282104,
				1.0132390260696411,
				1.1986082792282104
			],
			"translation":[
				-0.011890380643308163,
				-0.756409764289856,
				0.0014902293914929032
			]
		},
		{
			"mesh":16,
			"name":"nuts",
			"rotation":[
				0.11667908728122711,
				0.6974138021469116,
				-0.6974138021469116,
				0.11667913943529129
			],
			"scale":[
				-0.109476238489151,
				-0.1094762310385704,
				-0.10947611182928085
			],
			"translation":[
				-0.004777948372066021,
				3.1586480140686035,
				-0.2727024257183075
			]
		},
		{
			"mesh":17,
			"name":"Rectangle1st_layer",
			"scale":[
				0.849536120891571,
				0.849536120891571,
				0.849536120891571
			],
			"translation":[
				-0.0009237490594387054,
				1.0629512071609497,
				-0.0008959919214248657
			]
		},
		{
			"mesh":18,
			"name":"Rectangle2nd_layer",
			"scale":[
				0.849536120891571,
				0.849536120891571,
				0.849536120891571
			],
			"translation":[
				-0.0009237490594387054,
				1.0629512071609497,
				-0.0008959919214248657
			]
		},
		{
			"mesh":19,
			"name":"round1st_layer",
			"scale":[
				0.907319188117981,
				0.87493497133255,
				0.907319188117981
			],
			"translation":[
				0,
				1.8900001049041748,
				0
			]
		},
		{
			"mesh":20,
			"name":"round2nd_layer",
			"scale":[
				0.9357157349586487,
				0.9023179411888123,
				0.9357157349586487
			],
			"translation":[
				0,
				1.8900001049041748,
				0
			]
		},
		{
			"mesh":21,
			"name":"Sprinkles_Rectangle",
			"rotation":[
				0.7071068286895752,
				0,
				0,
				0.7071068286895752
			],
			"scale":[
				0.8633519411087036,
				0.8633519411087036,
				0.8633519411087036
			],
			"translation":[
				0.003209729678928852,
				1.0422054529190063,
				-0.01465661358088255
			]
		},
		{
			"mesh":22,
			"name":"Sprinkles_Round",
			"rotation":[
				0.7071068286895752,
				0,
				0,
				0.7071068286895752
			],
			"scale":[
				0.8633519411087036,
				0.8633519411087036,
				0.8633519411087036
			],
			"translation":[
				0.005182814784348011,
				1.0593770742416382,
				-0.00586343789473176
			]
		},
		{
			"mesh":23,
			"name":"Base-2",
			"scale":[
				1.007614016532898,
				1.0076141357421875,
				1.0076141357421875
			],
			"translation":[
				0,
				0,
				-27.200000762939453
			]
		},
		{
			"children":[
				23
			],
			"name":"stand",
			"rotation":[
				0.70710688829422,
				0,
				0,
				0.7071066498756409
			],
			"scale":[
				0.06730819493532181,
				0.06730816513299942,
				0.06730816513299942
			]
		}
	],
	"materials":[
		{
			"doubleSided":true,
			"name":"balls",
			"pbrMetallicRoughness":{
				"baseColorFactor":[
					0.8000000715255737,
					0.7753702402114868,
					0.4842037856578827,
					1
				],
				"metallicFactor":0.447761207818985,
				"roughnessFactor":0.4000000059604645
			}
		},
		{
			"doubleSided":true,
			"name":"choco",
			"pbrMetallicRoughness":{
				"baseColorFactor":[
					0.8000000715255737,
					0.3774730861186981,
					0.1561039686203003,
					1
				],
				"metallicFactor":0.41044774651527405,
				"roughnessFactor":0.4000000059604645
			}
		},
		{
			"doubleSided":true,
			"name":"choco.001",
			"pbrMetallicRoughness":{
				"baseColorFactor":[
					0.8000000715255737,
					0.3774730861186981,
					0.1561039686203003,
					1
				],
				"metallicFactor":0.41044774651527405,
				"roughnessFactor":0.4000000059604645
			}
		},
		{
			"doubleSided":true,
			"name":"Candle_White_Default",
			"pbrMetallicRoughness":{
				"metallicFactor":0,
				"roughnessFactor":0.3499999940395355
			}
		},
		{
			"doubleSided":true,
			"name":"chandel",
			"pbrMetallicRoughness":{
				"baseColorFactor":[
					1,
					0.7438003420829773,
					0.06327110528945923,
					1
				],
				"roughnessFactor":0.5
			}
		},
		{
			"doubleSided":true,
			"extensions":{
				"KHR_materials_transmission":{
					"transmissionFactor":1
				},
				"KHR_materials_specular":{
					"specularColorFactor":[
						1.3678666353225708,
						1.3678666353225708,
						1.3678666353225708
					]
				}
			},
			"name":"cherry",
			"pbrMetallicRoughness":{
				"baseColorTexture":{
					"index":0
				},
				"metallicFactor":0,
				"roughnessFactor":0.7902382612228394
			}
		},
		{
			"doubleSided":true,
			"name":"icing",
			"pbrMetallicRoughness":{
				"baseColorFactor":[
					0.14499999582767487,
					0.054999999701976776,
					0.029999999329447746,
					1
				],
				"metallicFactor":0,
				"roughnessFactor":0.2800000011920929
			}
		},
		{
			"doubleSided":true,
			"name":"icing.003",
			"pbrMetallicRoughness":{
				"baseColorFactor":[
					0.14499999582767487,
					0.054999999701976776,
					0.029999999329447746,
					1
				],
				"metallicFactor":0,
				"roughnessFactor":0.2800000011920929
			}
		},
		{
			"doubleSided":true,
			"name":"icing.002",
			"pbrMetallicRoughness":{
				"baseColorFactor":[
					0.14499999582767487,
					0.054999999701976776,
					0.029999999329447746,
					1
				],
				"metallicFactor":0,
				"roughnessFactor":0.2800000011920929
			}
		},
		{
			"doubleSided":true,
			"name":"Default",
			"pbrMetallicRoughness":{
				"baseColorFactor":[
					0.39015689492225647,
					0.1246422529220581,
					0.05855438858270645,
					1
				],
				"metallicFactor":0.29357796907424927,
				"roughnessFactor":0.5527864098548889
			}
		},
		{
			"doubleSided":true,
			"name":"Cake",
			"pbrMetallicRoughness":{
				"baseColorFactor":[
					0.798916220664978,
					0.3718603551387787,
					0.8000000715255737,
					1
				],
				"metallicFactor":0,
				"roughnessFactor":0.7134328484535217
			}
		},
		{
			"doubleSided":true,
			"name":"Cake.003",
			"pbrMetallicRoughness":{
				"baseColorFactor":[
					0.798916220664978,
					0.3718603551387787,
					0.8000000715255737,
					1
				],
				"metallicFactor":0,
				"roughnessFactor":0.7134328484535217
			}
		},
		{
			"doubleSided":true,
			"name":"Sprinkle_Red_mat",
			"pbrMetallicRoughness":{
				"baseColorFactor":[
					0.8500000238418579,
					0.30000001192092896,
					0.2800000011920929,
					1
				],
				"metallicFactor":0,
				"roughnessFactor":0.2200000286102295
			}
		},
		{
			"doubleSided":true,
			"name":"Sprinkle_Orange_mat",
			"pbrMetallicRoughness":{
				"baseColorFactor":[
					0.8999999761581421,
					0.44999998807907104,
					0.15000000596046448,
					1
				],
				"metallicFactor":0,
				"roughnessFactor":0.2200000286102295
			}
		},
		{
			"doubleSided":true,
			"name":"Sprinkle_Yellow_mat",
			"pbrMetallicRoughness":{
				"baseColorFactor":[
					0.8799999952316284,
					0.6499999761581421,
					0.15000000596046448,
					1
				],
				"metallicFactor":0,
				"roughnessFactor":0.2200000286102295
			}
		},
		{
			"doubleSided":true,
			"name":"Sprinkle_Green_mat",
			"pbrMetallicRoughness":{
				"baseColorFactor":[
					0.44999998807907104,
					0.75,
					0.550000011920929,
					1
				],
				"metallicFactor":0,
				"roughnessFactor":0.2200000286102295
			}
		},
		{
			"doubleSided":true,
			"name":"Sprinkle_Blue_mat",
			"pbrMetallicRoughness":{
				"baseColorFactor":[
					0.550000011920929,
					0.6499999761581421,
					0.8500000238418579,
					1
				],
				"metallicFactor":0,
				"roughnessFactor":0.2200000286102295
			}
		},
		{
			"doubleSided":true,
			"name":"Sprinkle_Pink_mat",
			"pbrMetallicRoughness":{
				"baseColorFactor":[
					0.8999999761581421,
					0.30000001192092896,
					0.550000011920929,
					1
				],
				"metallicFactor":0,
				"roughnessFactor":0.2200000286102295
			}
		},
		{
			"doubleSided":true,
			"name":"Sprinkle_Purple_mat",
			"pbrMetallicRoughness":{
				"baseColorFactor":[
					0.6000000238418579,
					0.30000001192092896,
					0.699999988079071,
					1
				],
				"metallicFactor":0,
				"roughnessFactor":0.2200000286102295
			}
		},
		{
			"doubleSided":true,
			"name":"Sprinkle_White_mat",
			"pbrMetallicRoughness":{
				"baseColorFactor":[
					0.9200000166893005,
					0.8999999761581421,
					0.8600000143051147,
					1
				],
				"metallicFactor":0,
				"roughnessFactor":0.2200000286102295
			}
		},
		{
			"doubleSided":true,
			"name":"Strip Part",
			"pbrMetallicRoughness":{
				"baseColorFactor":[
					0.800000011920929,
					0.800000011920929,
					0.800000011920929,
					1
				],
				"roughnessFactor":0.5527864098548889
			}
		},
		{
			"doubleSided":true,
			"name":"Primary Part",
			"pbrMetallicRoughness":{
				"baseColorFactor":[
					0.800000011920929,
					0.800000011920929,
					0.800000011920929,
					1
				],
				"roughnessFactor":0.5527864098548889
			}
		},
		{
			"doubleSided":true,
			"name":"Add Part M",
			"pbrMetallicRoughness":{
				"baseColorFactor":[
					0.800000011920929,
					0.800000011920929,
					0.800000011920929,
					1
				],
				"roughnessFactor":0.5527864098548889
			}
		},
		{
			"doubleSided":true,
			"name":"plastic1",
			"pbrMetallicRoughness":{
				"baseColorFactor":[
					0.9054136872291565,
					0.9054136872291565,
					0.9054136872291565,
					1
				],
				"roughnessFactor":0.4763636589050293
			}
		}
	],
	"meshes":[
		{
			"name":"sphere-podium-01",
			"primitives":[
				{
					"attributes":{
						"POSITION":0,
						"NORMAL":1,
						"TEXCOORD_0":2
					},
					"indices":3,
					"material":0
				}
			]
		},
		{
			"name":"bar",
			"primitives":[
				{
					"attributes":{
						"POSITION":4,
						"NORMAL":5,
						"TEXCOORD_0":6
					},
					"indices":7,
					"material":1
				},
				{
					"attributes":{
						"POSITION":8,
						"NORMAL":9,
						"TEXCOORD_0":10
					},
					"indices":11,
					"material":2
				}
			]
		},
		{
			"name":"20820_Number_0_v1",
			"primitives":[
				{
					"attributes":{
						"POSITION":12,
						"NORMAL":13,
						"TEXCOORD_0":14
					},
					"indices":15,
					"material":3
				}
			]
		},
		{
			"name":"20811_Number_1_v1",
			"primitives":[
				{
					"attributes":{
						"POSITION":16,
						"NORMAL":17,
						"TEXCOORD_0":18
					},
					"indices":19,
					"material":3
				}
			]
		},
		{
			"name":"20812_Number_2_v1",
			"primitives":[
				{
					"attributes":{
						"POSITION":20,
						"NORMAL":21,
						"TEXCOORD_0":22
					},
					"indices":23,
					"material":3
				}
			]
		},
		{
			"name":"20813_Number_3_v1",
			"primitives":[
				{
					"attributes":{
						"POSITION":24,
						"NORMAL":25,
						"TEXCOORD_0":26
					},
					"indices":27,
					"material":3
				}
			]
		},
		{
			"name":"20814_Number_4_v1",
			"primitives":[
				{
					"attributes":{
						"POSITION":28,
						"NORMAL":29,
						"TEXCOORD_0":30
					},
					"indices":31,
					"material":3
				}
			]
		},
		{
			"name":"20815_Number_5_v1",
			"primitives":[
				{
					"attributes":{
						"POSITION":32,
						"NORMAL":33,
						"TEXCOORD_0":34
					},
					"indices":35,
					"material":3
				}
			]
		},
		{
			"name":"20816_Number_6_v1",
			"primitives":[
				{
					"attributes":{
						"POSITION":36,
						"NORMAL":37,
						"TEXCOORD_0":38
					},
					"indices":39,
					"material":3
				}
			]
		},
		{
			"name":"20817_Number_7_v1",
			"primitives":[
				{
					"attributes":{
						"POSITION":40,
						"NORMAL":41,
						"TEXCOORD_0":42
					},
					"indices":43,
					"material":3
				}
			]
		},
		{
			"name":"20818_Number_8_v1",
			"primitives":[
				{
					"attributes":{
						"POSITION":44,
						"NORMAL":45,
						"TEXCOORD_0":46
					},
					"indices":47,
					"material":3
				}
			]
		},
		{
			"name":"20819_Number_9_v1",
			"primitives":[
				{
					"attributes":{
						"POSITION":48,
						"NORMAL":49,
						"TEXCOORD_0":50
					},
					"indices":51,
					"material":3
				}
			]
		},
		{
			"name":"chandel",
			"primitives":[
				{
					"attributes":{
						"POSITION":52,
						"NORMAL":53,
						"TEXCOORD_0":54
					},
					"indices":55,
					"material":4
				}
			]
		},
		{
			"name":"10174_Cherry_v01_l3",
			"primitives":[
				{
					"attributes":{
						"POSITION":56,
						"NORMAL":57,
						"TEXCOORD_0":58
					},
					"indices":59,
					"material":5
				}
			]
		},
		{
			"name":"icing_rectangle",
			"primitives":[
				{
					"attributes":{
						"POSITION":60,
						"NORMAL":61
					},
					"indices":62,
					"material":6
				},
				{
					"attributes":{
						"POSITION":63,
						"NORMAL":64
					},
					"indices":62,
					"material":7
				}
			]
		},
		{
			"name":"icing_round",
			"primitives":[
				{
					"attributes":{
						"POSITION":65,
						"NORMAL":66
					},
					"indices":62,
					"material":6
				},
				{
					"attributes":{
						"POSITION":67,
						"NORMAL":68
					},
					"indices":62,
					"material":8
				}
			]
		},
		{
			"name":"Mesh.021",
			"primitives":[
				{
					"attributes":{
						"POSITION":69,
						"NORMAL":70,
						"TEXCOORD_0":71,
						"TEXCOORD_1":72,
						"TEXCOORD_2":73,
						"TEXCOORD_3":74,
						"TEXCOORD_4":75,
						"TEXCOORD_5":76,
						"TEXCOORD_6":77,
						"TEXCOORD_7":78
					},
					"indices":79,
					"material":9
				}
			]
		},
		{
			"name":"Cube.002",
			"primitives":[
				{
					"attributes":{
						"POSITION":80,
						"NORMAL":81,
						"TEXCOORD_0":82
					},
					"indices":83
				}
			]
		},
		{
			"name":"Cube.003",
			"primitives":[
				{
					"attributes":{
						"POSITION":84,
						"NORMAL":85,
						"TEXCOORD_0":86
					},
					"indices":87
				}
			]
		},
		{
			"name":"Cake.003",
			"primitives":[
				{
					"attributes":{
						"POSITION":88,
						"NORMAL":89,
						"TEXCOORD_0":90
					},
					"indices":91,
					"material":10
				}
			]
		},
		{
			"name":"Cake.002",
			"primitives":[
				{
					"attributes":{
						"POSITION":92,
						"NORMAL":93,
						"TEXCOORD_0":94
					},
					"indices":95,
					"material":11
				}
			]
		},
		{
			"name":"Sprinkles_Rectangle",
			"primitives":[
				{
					"attributes":{
						"POSITION":96,
						"NORMAL":97
					},
					"indices":98,
					"material":12
				},
				{
					"attributes":{
						"POSITION":99,
						"NORMAL":100
					},
					"indices":101,
					"material":13
				},
				{
					"attributes":{
						"POSITION":102,
						"NORMAL":103
					},
					"indices":104,
					"material":14
				},
				{
					"attributes":{
						"POSITION":105,
						"NORMAL":106
					},
					"indices":107,
					"material":15
				},
				{
					"attributes":{
						"POSITION":108,
						"NORMAL":109
					},
					"indices":110,
					"material":16
				},
				{
					"attributes":{
						"POSITION":111,
						"NORMAL":112
					},
					"indices":113,
					"material":17
				},
				{
					"attributes":{
						"POSITION":114,
						"NORMAL":115
					},
					"indices":116,
					"material":18
				},
				{
					"attributes":{
						"POSITION":117,
						"NORMAL":118
					},
					"indices":119,
					"material":19
				}
			]
		},
		{
			"name":"Sprinkles_Round",
			"primitives":[
				{
					"attributes":{
						"POSITION":120,
						"NORMAL":121
					},
					"indices":122,
					"material":12
				},
				{
					"attributes":{
						"POSITION":123,
						"NORMAL":124
					},
					"indices":125,
					"material":13
				},
				{
					"attributes":{
						"POSITION":126,
						"NORMAL":127
					},
					"indices":128,
					"material":14
				},
				{
					"attributes":{
						"POSITION":129,
						"NORMAL":130
					},
					"indices":131,
					"material":15
				},
				{
					"attributes":{
						"POSITION":132,
						"NORMAL":133
					},
					"indices":134,
					"material":16
				},
				{
					"attributes":{
						"POSITION":135,
						"NORMAL":136
					},
					"indices":137,
					"material":17
				},
				{
					"attributes":{
						"POSITION":138,
						"NORMAL":139
					},
					"indices":140,
					"material":18
				},
				{
					"attributes":{
						"POSITION":141,
						"NORMAL":142
					},
					"indices":143,
					"material":19
				}
			]
		},
		{
			"name":"Mesh.004",
			"primitives":[
				{
					"attributes":{
						"POSITION":144,
						"NORMAL":145,
						"TEXCOORD_0":146,
						"TEXCOORD_1":147
					},
					"indices":148,
					"material":20
				},
				{
					"attributes":{
						"POSITION":149,
						"NORMAL":150,
						"TEXCOORD_0":151,
						"TEXCOORD_1":152
					},
					"indices":153,
					"material":21
				},
				{
					"attributes":{
						"POSITION":154,
						"NORMAL":155,
						"TEXCOORD_0":156,
						"TEXCOORD_1":157
					},
					"indices":158,
					"material":22
				},
				{
					"attributes":{
						"POSITION":159,
						"NORMAL":160,
						"TEXCOORD_0":161,
						"TEXCOORD_1":162
					},
					"indices":163,
					"material":23
				}
			]
		}
	],
	"textures":[
		{
			"sampler":0,
			"source":0
		}
	],
	"images":[
		{
			"mimeType":"image/jpeg",
			"name":"Cherry",
			"uri":"Cherry.jpg"
		}
	],
	"accessors":[
		{
			"bufferView":0,
			"componentType":5126,
			"count":1687,
			"max":[
				4.989811420440674,
				8.861030578613281,
				6.418581008911133
			],
			"min":[
				-7.616989612579346,
				-4.9872846603393555,
				-10.005023002624512
			],
			"type":"VEC3"
		},
		{
			"bufferView":1,
			"componentType":5126,
			"count":1687,
			"type":"VEC3"
		},
		{
			"bufferView":2,
			"componentType":5126,
			"count":1687,
			"type":"VEC2"
		},
		{
			"bufferView":3,
			"componentType":5123,
			"count":9522,
			"type":"SCALAR"
		},
		{
			"bufferView":4,
			"componentType":5126,
			"count":2007,
			"max":[
				6.851713180541992,
				3.650960683822632,
				2.7534697437658906e-05
			],
			"min":[
				-6.8624267578125,
				-3.669043779373169,
				-0.7603762745857239
			],
			"type":"VEC3"
		},
		{
			"bufferView":5,
			"componentType":5126,
			"count":2007,
			"type":"VEC3"
		},
		{
			"bufferView":6,
			"componentType":5126,
			"count":2007,
			"type":"VEC2"
		},
		{
			"bufferView":7,
			"componentType":5123,
			"count":8448,
			"type":"SCALAR"
		},
		{
			"bufferView":8,
			"componentType":5126,
			"count":2076,
			"max":[
				12.14146900177002,
				11.090291023254395,
				14.591609954833984
			],
			"min":[
				6.59420108795166,
				-1.9088325500488281,
				1.9655084609985352
			],
			"type":"VEC3"
		},
		{
			"bufferView":9,
			"componentType":5126,
			"count":2076,
			"type":"VEC3"
		},
		{
			"bufferView":10,
			"componentType":5126,
			"count":2076,
			"type":"VEC2"
		},
		{
			"bufferView":11,
			"componentType":5123,
			"count":8448,
			"type":"SCALAR"
		},
		{
			"bufferView":12,
			"componentType":5126,
			"count":7426,
			"max":[
				4.255499839782715,
				13.07979965209961,
				0.9739000201225281
			],
			"min":[
				-4.258399963378906,
				0.0015999999595806003,
				-0.9739000201225281
			],
			"type":"VEC3"
		},
		{
			"bufferView":13,
			"componentType":5126,
			"count":7426,
			"type":"VEC3"
		},
		{
			"bufferView":14,
			"componentType":5126,
			"count":7426,
			"type":"VEC2"
		},
		{
			"bufferView":15,
			"componentType":5123,
			"count":44544,
			"type":"SCALAR"
		},
		{
			"bufferView":16,
			"componentType":5126,
			"count":6020,
			"max":[
				3.598599910736084,
				12.98330020904541,
				0.996999979019165
			],
			"min":[
				-3.592900037765503,
				0.0015999999595806003,
				-0.996999979019165
			],
			"type":"VEC3"
		},
		{
			"bufferView":17,
			"componentType":5126,
			"count":6020,
			"type":"VEC3"
		},
		{
			"bufferView":18,
			"componentType":5126,
			"count":6020,
			"type":"VEC2"
		},
		{
			"bufferView":19,
			"componentType":5123,
			"count":36096,
			"type":"SCALAR"
		},
		{
			"bufferView":20,
			"componentType":5126,
			"count":6244,
			"max":[
				3.4879000186920166,
				12.881999969482422,
				0.9958999752998352
			],
			"min":[
				-4.000800132751465,
				0.0015999999595806003,
				-0.9958999752998352
			],
			"type":"VEC3"
		},
		{
			"bufferView":21,
			"componentType":5126,
			"count":6244,
			"type":"VEC3"
		},
		{
			"bufferView":22,
			"componentType":5126,
			"count":6244,
			"type":"VEC2"
		},
		{
			"bufferView":23,
			"componentType":5123,
			"count":37440,
			"type":"SCALAR"
		},
		{
			"bufferView":24,
			"componentType":5126,
			"count":7140,
			"max":[
				3.5824999809265137,
				13.269499778747559,
				0.9984999895095825
			],
			"min":[
				-3.5876998901367188,
				0.0015999999595806003,
				-0.9984999895095825
			],
			"type":"VEC3"
		},
		{
			"bufferView":25,
			"componentType":5126,
			"count":7140,
			"type":"VEC3"
		},
		{
			"bufferView":26,
			"componentType":5126,
			"count":7140,
			"type":"VEC2"
		},
		{
			"bufferView":27,
			"componentType":5123,
			"count":42816,
			"type":"SCALAR"
		},
		{
			"bufferView":28,
			"componentType":5126,
			"count":9026,
			"max":[
				2.9349000453948975,
				13.014599800109863,
				1.0009000301361084
			],
			"min":[
				-4.735300064086914,
				0.0015999999595806003,
				-1.0009000301361084
			],
			"type":"VEC3"
		},
		{
			"bufferView":29,
			"componentType":5126,
			"count":9026,
			"type":"VEC3"
		},
		{
			"bufferView":30,
			"componentType":5126,
			"count":9026,
			"type":"VEC2"
		},
		{
			"bufferView":31,
			"componentType":5123,
			"count":54144,
			"type":"SCALAR"
		},
		{
			"bufferView":32,
			"componentType":5126,
			"count":7556,
			"max":[
				3.6456000804901123,
				13.251500129699707,
				0.9912999868392944
			],
			"min":[
				-3.660900115966797,
				0.0015999999595806003,
				-0.9912999868392944
			],
			"type":"VEC3"
		},
		{
			"bufferView":33,
			"componentType":5126,
			"count":7556,
			"type":"VEC3"
		},
		{
			"bufferView":34,
			"componentType":5126,
			"count":7556,
			"type":"VEC2"
		},
		{
			"bufferView":35,
			"componentType":5123,
			"count":45312,
			"type":"SCALAR"
		},
		{
			"bufferView":36,
			"componentType":5126,
			"count":5826,
			"max":[
				3.468600034713745,
				12.821000099182129,
				0.9891999959945679
			],
			"min":[
				-4.336900234222412,
				0.0015999999595806003,
				-0.9891999959945679
			],
			"type":"VEC3"
		},
		{
			"bufferView":37,
			"componentType":5126,
			"count":5826,
			"type":"VEC3"
		},
		{
			"bufferView":38,
			"componentType":5126,
			"count":5826,
			"type":"VEC2"
		},
		{
			"bufferView":39,
			"componentType":5123,
			"count":34944,
			"type":"SCALAR"
		},
		{
			"bufferView":40,
			"componentType":5126,
			"count":4708,
			"max":[
				4.135300159454346,
				13.040399551391602,
				1.00409996509552
			],
			"min":[
				-3.890000104904175,
				0.0015999999595806003,
				-1.00409996509552
			],
			"type":"VEC3"
		},
		{
			"bufferView":41,
			"componentType":5126,
			"count":4708,
			"type":"VEC3"
		},
		{
			"bufferView":42,
			"componentType":5126,
			"count":4708,
			"type":"VEC2"
		},
		{
			"bufferView":43,
			"componentType":5123,
			"count":28224,
			"type":"SCALAR"
		},
		{
			"bufferView":44,
			"componentType":5126,
			"count":7536,
			"max":[
				3.8194000720977783,
				12.913700103759766,
				0.9919000267982483
			],
			"min":[
				-3.793800115585327,
				0.0015999999595806003,
				-0.9919000267982483
			],
			"type":"VEC3"
		},
		{
			"bufferView":45,
			"componentType":5126,
			"count":7536,
			"type":"VEC3"
		},
		{
			"bufferView":46,
			"componentType":5126,
			"count":7536,
			"type":"VEC2"
		},
		{
			"bufferView":47,
			"componentType":5123,
			"count":45216,
			"type":"SCALAR"
		},
		{
			"bufferView":48,
			"componentType":5126,
			"count":7234,
			"max":[
				3.8592000007629395,
				12.920999526977539,
				0.9919000267982483
			],
			"min":[
				-3.8784000873565674,
				0.0015999999595806003,
				-0.9919000267982483
			],
			"type":"VEC3"
		},
		{
			"bufferView":49,
			"componentType":5126,
			"count":7234,
			"type":"VEC3"
		},
		{
			"bufferView":50,
			"componentType":5126,
			"count":7234,
			"type":"VEC2"
		},
		{
			"bufferView":51,
			"componentType":5123,
			"count":43392,
			"type":"SCALAR"
		},
		{
			"bufferView":52,
			"componentType":5126,
			"count":2191,
			"max":[
				12.307149887084961,
				2.4862890243530273,
				-0.08048223704099655
			],
			"min":[
				-12.246755599975586,
				-2.486287832260132,
				-35.94937515258789
			],
			"type":"VEC3"
		},
		{
			"bufferView":53,
			"componentType":5126,
			"count":2191,
			"type":"VEC3"
		},
		{
			"bufferView":54,
			"componentType":5126,
			"count":2191,
			"type":"VEC2"
		},
		{
			"bufferView":55,
			"componentType":5123,
			"count":9021,
			"type":"SCALAR"
		},
		{
			"bufferView":56,
			"componentType":5126,
			"count":3830,
			"max":[
				2.7065000534057617,
				10.72029972076416,
				2.668299913406372
			],
			"min":[
				-2.679800033569336,
				0.0333000011742115,
				-2.492799997329712
			],
			"type":"VEC3"
		},
		{
			"bufferView":57,
			"componentType":5126,
			"count":3830,
			"type":"VEC3"
		},
		{
			"bufferView":58,
			"componentType":5126,
			"count":3830,
			"type":"VEC2"
		},
		{
			"bufferView":59,
			"componentType":5123,
			"count":22176,
			"type":"SCALAR"
		},
		{
			"bufferView":60,
			"componentType":5126,
			"count":192,
			"max":[
				0.7609925270080566,
				3.062299966812134,
				0.7609925270080566
			],
			"min":[
				-0.7609925270080566,
				2.6326661109924316,
				-0.7609925270080566
			],
			"type":"VEC3"
		},
		{
			"bufferView":61,
			"componentType":5126,
			"count":192,
			"type":"VEC3"
		},
		{
			"bufferView":62,
			"componentType":5123,
			"count":576,
			"type":"SCALAR"
		},
		{
			"bufferView":63,
			"componentType":5126,
			"count":192,
			"max":[
				0.6538797616958618,
				3.7157089710235596,
				0.6574415564537048
			],
			"min":[
				-0.6470177173614502,
				3.2899374961853027,
				-0.6414304375648499
			],
			"type":"VEC3"
		},
		{
			"bufferView":64,
			"componentType":5126,
			"count":192,
			"type":"VEC3"
		},
		{
			"bufferView":65,
			"componentType":5126,
			"count":192,
			"max":[
				0.7749999761581421,
				3.061500072479248,
				0.7749999761581421
			],
			"min":[
				-0.7749999761581421,
				2.7054202556610107,
				-0.7749999761581421
			],
			"type":"VEC3"
		},
		{
			"bufferView":66,
			"componentType":5126,
			"count":192,
			"type":"VEC3"
		},
		{
			"bufferView":67,
			"componentType":5126,
			"count":192,
			"max":[
				0.6542461514472961,
				3.7595150470733643,
				0.6430826783180237
			],
			"min":[
				-0.634405791759491,
				3.428591728210449,
				-0.6455692648887634
			],
			"type":"VEC3"
		},
		{
			"bufferView":68,
			"componentType":5126,
			"count":192,
			"type":"VEC3"
		},
		{
			"bufferView":69,
			"componentType":5126,
			"count":1801,
			"max":[
				5.157455921173096,
				6.677026748657227,
				0.1236448585987091
			],
			"min":[
				-2.7750861644744873,
				-1.7895127534866333,
				-1.0552083253860474
			],
			"type":"VEC3"
		},
		{
			"bufferView":70,
			"componentType":5126,
			"count":1801,
			"type":"VEC3"
		},
		{
			"bufferView":71,
			"componentType":5126,
			"count":1801,
			"type":"VEC2"
		},
		{
			"bufferView":72,
			"componentType":5126,
			"count":1801,
			"type":"VEC2"
		},
		{
			"bufferView":73,
			"componentType":5126,
			"count":1801,
			"type":"VEC2"
		},
		{
			"bufferView":74,
			"componentType":5126,
			"count":1801,
			"type":"VEC2"
		},
		{
			"bufferView":75,
			"componentType":5126,
			"count":1801,
			"type":"VEC2"
		},
		{
			"bufferView":76,
			"componentType":5126,
			"count":1801,
			"type":"VEC2"
		},
		{
			"bufferView":77,
			"componentType":5126,
			"count":1801,
			"type":"VEC2"
		},
		{
			"bufferView":78,
			"componentType":5126,
			"count":1801,
			"type":"VEC2"
		},
		{
			"bufferView":79,
			"componentType":5123,
			"count":7209,
			"type":"SCALAR"
		},
		{
			"bufferView":80,
			"componentType":5126,
			"count":245,
			"max":[
				1.1216989755630493,
				1.519121766090393,
				1.1216663122177124
			],
			"min":[
				-1.119524359703064,
				0.4279381036758423,
				-1.1195570230484009
			],
			"type":"VEC3"
		},
		{
			"bufferView":81,
			"componentType":5126,
			"count":245,
			"type":"VEC3"
		},
		{
			"bufferView":82,
			"componentType":5126,
			"count":245,
			"type":"VEC2"
		},
		{
			"bufferView":83,
			"componentType":5123,
			"count":1284,
			"type":"SCALAR"
		},
		{
			"bufferView":84,
			"componentType":5126,
			"count":245,
			"max":[
				0.9520000219345093,
				2.3534998893737793,
				0.9520000219345093
			],
			"min":[
				-0.9520000219345093,
				1.4264999628067017,
				-0.9520000219345093
			],
			"type":"VEC3"
		},
		{
			"bufferView":85,
			"componentType":5126,
			"count":245,
			"type":"VEC3"
		},
		{
			"bufferView":86,
			"componentType":5126,
			"count":245,
			"type":"VEC2"
		},
		{
			"bufferView":87,
			"componentType":5123,
			"count":1284,
			"type":"SCALAR"
		},
		{
			"bufferView":88,
			"componentType":5126,
			"count":3853,
			"max":[
				1.0176072120666504,
				0.5138916373252869,
				1.0176072120666504
			],
			"min":[
				-1.0176072120666504,
				-0.5138916373252869,
				-1.0176072120666504
			],
			"type":"VEC3"
		},
		{
			"bufferView":89,
			"componentType":5126,
			"count":3853,
			"type":"VEC3"
		},
		{
			"bufferView":90,
			"componentType":5126,
			"count":3853,
			"type":"VEC2"
		},
		{
			"bufferView":91,
			"componentType":5123,
			"count":15906,
			"type":"SCALAR"
		},
		{
			"bufferView":92,
			"componentType":5126,
			"count":3932,
			"max":[
				0.8118726015090942,
				1.2983155250549316,
				0.8143048286437988
			],
			"min":[
				-0.8189306855201721,
				0.4747600257396698,
				-0.8164984583854675
			],
			"type":"VEC3"
		},
		{
			"bufferView":93,
			"componentType":5126,
			"count":3932,
			"type":"VEC3"
		},
		{
			"bufferView":94,
			"componentType":5126,
			"count":3932,
			"type":"VEC2"
		},
		{
			"bufferView":95,
			"componentType":5123,
			"count":15906,
			"type":"SCALAR"
		},
		{
			"bufferView":96,
			"componentType":5126,
			"count":25836,
			"max":[
				0.8746079802513123,
				0.8750960230827332,
				-2.339684009552002
			],
			"min":[
				-0.8749250173568726,
				-0.8697199821472168,
				-2.370206117630005
			],
			"type":"VEC3"
		},
		{
			"bufferView":97,
			"componentType":5126,
			"count":25836,
			"type":"VEC3"
		},
		{
			"bufferView":98,
			"componentType":5123,
			"count":41358,
			"type":"SCALAR"
		},
		{
			"bufferView":99,
			"componentType":5126,
			"count":7636,
			"max":[
				0.8746079802513123,
				0.8761669993400574,
				-2.340998888015747
			],
			"min":[
				-0.8675289750099182,
				-0.865742027759552,
				-2.3690459728240967
			],
			"type":"VEC3"
		},
		{
			"bufferView":100,
			"componentType":5126,
			"count":7636,
			"type":"VEC3"
		},
		{
			"bufferView":101,
			"componentType":5123,
			"count":14004,
			"type":"SCALAR"
		},
		{
			"bufferView":102,
			"componentType":5126,
			"count":7080,
			"max":[
				0.8728309869766235,
				0.8624410033226013,
				-2.341162919998169
			],
			"min":[
				-0.8699569702148438,
				-0.8667529821395874,
				-2.370206117630005
			],
			"type":"VEC3"
		},
		{
			"bufferView":103,
			"componentType":5126,
			"count":7080,
			"type":"VEC3"
		},
		{
			"bufferView":104,
			"componentType":5123,
			"count":12978,
			"type":"SCALAR"
		},
		{
			"bufferView":105,
			"componentType":5126,
			"count":7144,
			"max":[
				0.8746079802513123,
				0.8761669993400574,
				-2.340567111968994
			],
			"min":[
				-0.8750730156898499,
				-0.8697199821472168,
				-2.369339942932129
			],
			"type":"VEC3"
		},
		{
			"bufferView":106,
			"componentType":5126,
			"count":7144,
			"type":"VEC3"
		},
		{
			"bufferView":107,
			"componentType":5123,
			"count":13098,
			"type":"SCALAR"
		},
		{
			"bufferView":108,
			"componentType":5126,
			"count":6948,
			"max":[
				0.8618299961090088,
				0.8574699759483337,
				-2.3405189514160156
			],
			"min":[
				-0.8750730156898499,
				-0.8626620173454285,
				-2.369455099105835
			],
			"type":"VEC3"
		},
		{
			"bufferView":109,
			"componentType":5126,
			"count":6948,
			"type":"VEC3"
		},
		{
			"bufferView":110,
			"componentType":5123,
			"count":12738,
			"type":"SCALAR"
		},
		{
			"bufferView":111,
			"componentType":5126,
			"count":7488,
			"max":[
				0.8717089891433716,
				0.8568429946899414,
				-2.3408899307250977
			],
			"min":[
				-0.8698350191116333,
				-0.8697199821472168,
				-2.3697469234466553
			],
			"type":"VEC3"
		},
		{
			"bufferView":112,
			"componentType":5126,
			"count":7488,
			"type":"VEC3"
		},
		{
			"bufferView":113,
			"componentType":5123,
			"count":13728,
			"type":"SCALAR"
		},
		{
			"bufferView":114,
			"componentType":5126,
			"count":7060,
			"max":[
				0.8623409867286682,
				0.8658260107040405,
				-2.340395927429199
			],
			"min":[
				-0.8694869875907898,
				-0.8694469928741455,
				-2.370206117630005
			],
			"type":"VEC3"
		},
		{
			"bufferView":115,
			"componentType":5126,
			"count":7060,
			"type":"VEC3"
		},
		{
			"bufferView":116,
			"componentType":5123,
			"count":12948,
			"type":"SCALAR"
		},
		{
			"bufferView":117,
			"componentType":5126,
			"count":2808,
			"max":[
				0.863955020904541,
				0.8527929782867432,
				-2.3413310050964355
			],
			"min":[
				-0.8530020117759705,
				-0.8640450239181519,
				-2.3690450191497803
			],
			"type":"VEC3"
		},
		{
			"bufferView":118,
			"componentType":5126,
			"count":2808,
			"type":"VEC3"
		},
		{
			"bufferView":119,
			"componentType":5123,
			"count":5148,
			"type":"SCALAR"
		},
		{
			"bufferView":120,
			"componentType":5126,
			"count":23452,
			"max":[
				0.8647300004959106,
				0.831570029258728,
				-2.3123650550842285
			],
			"min":[
				-0.8742470145225525,
				-0.8361309766769409,
				-2.3429179191589355
			],
			"type":"VEC3"
		},
		{
			"bufferView":121,
			"componentType":5126,
			"count":23452,
			"type":"VEC3"
		},
		{
			"bufferView":122,
			"componentType":5123,
			"count":37392,
			"type":"SCALAR"
		},
		{
			"bufferView":123,
			"componentType":5126,
			"count":6336,
			"max":[
				0.861515998840332,
				0.8196359872817993,
				-2.3132948875427246
			],
			"min":[
				-0.8332890272140503,
				-0.8030300140380859,
				-2.3429179191589355
			],
			"type":"VEC3"
		},
		{
			"bufferView":124,
			"componentType":5126,
			"count":6336,
			"type":"VEC3"
		},
		{
			"bufferView":125,
			"componentType":5123,
			"count":11616,
			"type":"SCALAR"
		},
		{
			"bufferView":126,
			"componentType":5126,
			"count":6840,
			"max":[
				0.8637940287590027,
				0.8123559951782227,
				-2.313913106918335
			],
			"min":[
				-0.8745409846305847,
				-0.7786350250244141,
				-2.342724084854126
			],
			"type":"VEC3"
		},
		{
			"bufferView":127,
			"componentType":5126,
			"count":6840,
			"type":"VEC3"
		},
		{
			"bufferView":128,
			"componentType":5123,
			"count":12540,
			"type":"SCALAR"
		},
		{
			"bufferView":129,
			"componentType":5126,
			"count":6984,
			"max":[
				0.8635889887809753,
				0.8009099960327148,
				-2.313443899154663
			],
			"min":[
				-0.8581209778785706,
				-0.8302369713783264,
				-2.342940092086792
			],
			"type":"VEC3"
		},
		{
			"bufferView":130,
			"componentType":5126,
			"count":6984,
			"type":"VEC3"
		},
		{
			"bufferView":131,
			"componentType":5123,
			"count":12798,
			"type":"SCALAR"
		},
		{
			"bufferView":132,
			"componentType":5126,
			"count":7460,
			"max":[
				0.8448600172996521,
				0.8133329749107361,
				-2.3123650550842285
			],
			"min":[
				-0.8744189739227295,
				-0.8361309766769409,
				-2.342940092086792
			],
			"type":"VEC3"
		},
		{
			"bufferView":133,
			"componentType":5126,
			"count":7460,
			"type":"VEC3"
		},
		{
			"bufferView":134,
			"componentType":5123,
			"count":13686,
			"type":"SCALAR"
		},
		{
			"bufferView":135,
			"componentType":5126,
			"count":7056,
			"max":[
				0.8647300004959106,
				0.8111339807510376,
				-2.3131608963012695
			],
			"min":[
				-0.8365110158920288,
				-0.8361309766769409,
				-2.342000961303711
			],
			"type":"VEC3"
		},
		{
			"bufferView":136,
			"componentType":5126,
			"count":7056,
			"type":"VEC3"
		},
		{
			"bufferView":137,
			"componentType":5123,
			"count":12936,
			"type":"SCALAR"
		},
		{
			"bufferView":138,
			"componentType":5126,
			"count":6588,
			"max":[
				0.8414930105209351,
				0.831570029258728,
				-2.3132920265197754
			],
			"min":[
				-0.8581209778785706,
				-0.8339160084724426,
				-2.3422210216522217
			],
			"type":"VEC3"
		},
		{
			"bufferView":139,
			"componentType":5126,
			"count":6588,
			"type":"VEC3"
		},
		{
			"bufferView":140,
			"componentType":5123,
			"count":12078,
			"type":"SCALAR"
		},
		{
			"bufferView":141,
			"componentType":5126,
			"count":2484,
			"max":[
				0.8603799939155579,
				0.8297420144081116,
				-2.3138558864593506
			],
			"min":[
				-0.8190670013427734,
				-0.7732570171356201,
				-2.3431661128997803
			],
			"type":"VEC3"
		},
		{
			"bufferView":142,
			"componentType":5126,
			"count":2484,
			"type":"VEC3"
		},
		{
			"bufferView":143,
			"componentType":5123,
			"count":4554,
			"type":"SCALAR"
		},
		{
			"bufferView":144,
			"componentType":5126,
			"count":8170,
			"max":[
				8.75037956237793,
				8.747909545898438,
				26.213991165161133
			],
			"min":[
				-8.746509552001953,
				-8.748979568481445,
				26.122730255126953
			],
			"type":"VEC3"
		},
		{
			"bufferView":145,
			"componentType":5126,
			"count":8170,
			"type":"VEC3"
		},
		{
			"bufferView":146,
			"componentType":5126,
			"count":8170,
			"type":"VEC2"
		},
		{
			"bufferView":147,
			"componentType":5126,
			"count":8170,
			"type":"VEC2"
		},
		{
			"bufferView":148,
			"componentType":5123,
			"count":34560,
			"type":"SCALAR"
		},
		{
			"bufferView":149,
			"componentType":5126,
			"count":52093,
			"max":[
				8.853130340576172,
				8.853519439697266,
				26.723876953125
			],
			"min":[
				-8.853110313415527,
				-8.852709770202637,
				26.124021530151367
			],
			"type":"VEC3"
		},
		{
			"bufferView":150,
			"componentType":5126,
			"count":52093,
			"type":"VEC3"
		},
		{
			"bufferView":151,
			"componentType":5126,
			"count":52093,
			"type":"VEC2"
		},
		{
			"bufferView":152,
			"componentType":5126,
			"count":52093,
			"type":"VEC2"
		},
		{
			"bufferView":153,
			"componentType":5123,
			"count":303828,
			"type":"SCALAR"
		},
		{
			"bufferView":154,
			"componentType":5126,
			"count":208521,
			"max":[
				8.747010231018066,
				8.744500160217285,
				26.20990562438965
			],
			"min":[
				-8.743090629577637,
				-8.745590209960938,
				6.342200756072998
			],
			"type":"VEC3"
		},
		{
			"bufferView":155,
			"componentType":5126,
			"count":208521,
			"type":"VEC3"
		},
		{
			"bufferView":156,
			"componentType":5126,
			"count":208521,
			"type":"VEC2"
		},
		{
			"bufferView":157,
			"componentType":5126,
			"count":208521,
			"type":"VEC2"
		},
		{
			"bufferView":158,
			"componentType":5125,
			"count":1222932,
			"type":"SCALAR"
		},
		{
			"bufferView":159,
			"componentType":5126,
			"count":2466,
			"max":[
				16.955799102783203,
				16.956480026245117,
				6.572969436645508
			],
			"min":[
				-16.955799102783203,
				-16.95648765563965,
				5.835725784301758
			],
			"type":"VEC3"
		},
		{
			"bufferView":160,
			"componentType":5126,
			"count":2466,
			"type":"VEC3"
		},
		{
			"bufferView":161,
			"componentType":5126,
			"count":2466,
			"type":"VEC2"
		},
		{
			"bufferView":162,
			"componentType":5126,
			"count":2466,
			"type":"VEC2"
		},
		{
			"bufferView":163,
			"componentType":5123,
			"count":4188,
			"type":"SCALAR"
		}
	],
	"bufferViews":[
		{
			"buffer":0,
			"byteLength":20244,
			"byteOffset":0,
			"target":34962
		},
		{
			"buffer":0,
			"byteLength":20244,
			"byteOffset":20244,
			"target":34962
		},
		{
			"buffer":0,
			"byteLength":13496,
			"byteOffset":40488,
			"target":34962
		},
		{
			"buffer":0,
			"byteLength":19044,
			"byteOffset":53984,
			"target":34963
		},
		{
			"buffer":0,
			"byteLength":24084,
			"byteOffset":73028,
			"target":34962
		},
		{
			"buffer":0,
			"byteLength":24084,
			"byteOffset":97112,
			"target":34962
		},
		{
			"buffer":0,
			"byteLength":16056,
			"byteOffset":121196,
			"target":34962
		},
		{
			"buffer":0,
			"byteLength":16896,
			"byteOffset":137252,
			"target":34963
		},
		{
			"buffer":0,
			"byteLength":24912,
			"byteOffset":154148,
			"target":34962
		},
		{
			"buffer":0,
			"byteLength":24912,
			"byteOffset":179060,
			"target":34962
		},
		{
			"buffer":0,
			"byteLength":16608,
			"byteOffset":203972,
			"target":34962
		},
		{
			"buffer":0,
			"byteLength":16896,
			"byteOffset":220580,
			"target":34963
		},
		{
			"buffer":0,
			"byteLength":89112,
			"byteOffset":237476,
			"target":34962
		},
		{
			"buffer":0,
			"byteLength":89112,
			"byteOffset":326588,
			"target":34962
		},
		{
			"buffer":0,
			"byteLength":59408,
			"byteOffset":415700,
			"target":34962
		},
		{
			"buffer":0,
			"byteLength":89088,
			"byteOffset":475108,
			"target":34963
		},
		{
			"buffer":0,
			"byteLength":72240,
			"byteOffset":564196,
			"target":34962
		},
		{
			"buffer":0,
			"byteLength":72240,
			"byteOffset":636436,
			"target":34962
		},
		{
			"buffer":0,
			"byteLength":48160,
			"byteOffset":708676,
			"target":34962
		},
		{
			"buffer":0,
			"byteLength":72192,
			"byteOffset":756836,
			"target":34963
		},
		{
			"buffer":0,
			"byteLength":74928,
			"byteOffset":829028,
			"target":34962
		},
		{
			"buffer":0,
			"byteLength":74928,
			"byteOffset":903956,
			"target":34962
		},
		{
			"buffer":0,
			"byteLength":49952,
			"byteOffset":978884,
			"target":34962
		},
		{
			"buffer":0,
			"byteLength":74880,
			"byteOffset":1028836,
			"target":34963
		},
		{
			"buffer":0,
			"byteLength":85680,
			"byteOffset":1103716,
			"target":34962
		},
		{
			"buffer":0,
			"byteLength":85680,
			"byteOffset":1189396,
			"target":34962
		},
		{
			"buffer":0,
			"byteLength":57120,
			"byteOffset":1275076,
			"target":34962
		},
		{
			"buffer":0,
			"byteLength":85632,
			"byteOffset":1332196,
			"target":34963
		},
		{
			"buffer":0,
			"byteLength":108312,
			"byteOffset":1417828,
			"target":34962
		},
		{
			"buffer":0,
			"byteLength":108312,
			"byteOffset":1526140,
			"target":34962
		},
		{
			"buffer":0,
			"byteLength":72208,
			"byteOffset":1634452,
			"target":34962
		},
		{
			"buffer":0,
			"byteLength":108288,
			"byteOffset":1706660,
			"target":34963
		},
		{
			"buffer":0,
			"byteLength":90672,
			"byteOffset":1814948,
			"target":34962
		},
		{
			"buffer":0,
			"byteLength":90672,
			"byteOffset":1905620,
			"target":34962
		},
		{
			"buffer":0,
			"byteLength":60448,
			"byteOffset":1996292,
			"target":34962
		},
		{
			"buffer":0,
			"byteLength":90624,
			"byteOffset":2056740,
			"target":34963
		},
		{
			"buffer":0,
			"byteLength":69912,
			"byteOffset":2147364,
			"target":34962
		},
		{
			"buffer":0,
			"byteLength":69912,
			"byteOffset":2217276,
			"target":34962
		},
		{
			"buffer":0,
			"byteLength":46608,
			"byteOffset":2287188,
			"target":34962
		},
		{
			"buffer":0,
			"byteLength":69888,
			"byteOffset":2333796,
			"target":34963
		},
		{
			"buffer":0,
			"byteLength":56496,
			"byteOffset":2403684,
			"target":34962
		},
		{
			"buffer":0,
			"byteLength":56496,
			"byteOffset":2460180,
			"target":34962
		},
		{
			"buffer":0,
			"byteLength":37664,
			"byteOffset":2516676,
			"target":34962
		},
		{
			"buffer":0,
			"byteLength":56448,
			"byteOffset":2554340,
			"target":34963
		},
		{
			"buffer":0,
			"byteLength":90432,
			"byteOffset":2610788,
			"target":34962
		},
		{
			"buffer":0,
			"byteLength":90432,
			"byteOffset":2701220,
			"target":34962
		},
		{
			"buffer":0,
			"byteLength":60288,
			"byteOffset":2791652,
			"target":34962
		},
		{
			"buffer":0,
			"byteLength":90432,
			"byteOffset":2851940,
			"target":34963
		},
		{
			"buffer":0,
			"byteLength":86808,
			"byteOffset":2942372,
			"target":34962
		},
		{
			"buffer":0,
			"byteLength":86808,
			"byteOffset":3029180,
			"target":34962
		},
		{
			"buffer":0,
			"byteLength":57872,
			"byteOffset":3115988,
			"target":34962
		},
		{
			"buffer":0,
			"byteLength":86784,
			"byteOffset":3173860,
			"target":34963
		},
		{
			"buffer":0,
			"byteLength":26292,
			"byteOffset":3260644,
			"target":34962
		},
		{
			"buffer":0,
			"byteLength":26292,
			"byteOffset":3286936,
			"target":34962
		},
		{
			"buffer":0,
			"byteLength":17528,
			"byteOffset":3313228,
			"target":34962
		},
		{
			"buffer":0,
			"byteLength":18042,
			"byteOffset":3330756,
			"target":34963
		},
		{
			"buffer":0,
			"byteLength":45960,
			"byteOffset":3348800,
			"target":34962
		},
		{
			"buffer":0,
			"byteLength":45960,
			"byteOffset":3394760,
			"target":34962
		},
		{
			"buffer":0,
			"byteLength":30640,
			"byteOffset":3440720,
			"target":34962
		},
		{
			"buffer":0,
			"byteLength":44352,
			"byteOffset":3471360,
			"target":34963
		},
		{
			"buffer":0,
			"byteLength":2304,
			"byteOffset":3515712,
			"target":34962
		},
		{
			"buffer":0,
			"byteLength":2304,
			"byteOffset":3518016,
			"target":34962
		},
		{
			"buffer":0,
			"byteLength":1152,
			"byteOffset":3520320,
			"target":34963
		},
		{
			"buffer":0,
			"byteLength":2304,
			"byteOffset":3521472,
			"target":34962
		},
		{
			"buffer":0,
			"byteLength":2304,
			"byteOffset":3523776,
			"target":34962
		},
		{
			"buffer":0,
			"byteLength":2304,
			"byteOffset":3526080,
			"target":34962
		},
		{
			"buffer":0,
			"byteLength":2304,
			"byteOffset":3528384,
			"target":34962
		},
		{
			"buffer":0,
			"byteLength":2304,
			"byteOffset":3530688,
			"target":34962
		},
		{
			"buffer":0,
			"byteLength":2304,
			"byteOffset":3532992,
			"target":34962
		},
		{
			"buffer":0,
			"byteLength":21612,
			"byteOffset":3535296,
			"target":34962
		},
		{
			"buffer":0,
			"byteLength":21612,
			"byteOffset":3556908,
			"target":34962
		},
		{
			"buffer":0,
			"byteLength":14408,
			"byteOffset":3578520,
			"target":34962
		},
		{
			"buffer":0,
			"byteLength":14408,
			"byteOffset":3592928,
			"target":34962
		},
		{
			"buffer":0,
			"byteLength":14408,
			"byteOffset":3607336,
			"target":34962
		},
		{
			"buffer":0,
			"byteLength":14408,
			"byteOffset":3621744,
			"target":34962
		},
		{
			"buffer":0,
			"byteLength":14408,
			"byteOffset":3636152,
			"target":34962
		},
		{
			"buffer":0,
			"byteLength":14408,
			"byteOffset":3650560,
			"target":34962
		},
		{
			"buffer":0,
			"byteLength":14408,
			"byteOffset":3664968,
			"target":34962
		},
		{
			"buffer":0,
			"byteLength":14408,
			"byteOffset":3679376,
			"target":34962
		},
		{
			"buffer":0,
			"byteLength":14418,
			"byteOffset":3693784,
			"target":34963
		},
		{
			"buffer":0,
			"byteLength":2940,
			"byteOffset":3708204,
			"target":34962
		},
		{
			"buffer":0,
			"byteLength":2940,
			"byteOffset":3711144,
			"target":34962
		},
		{
			"buffer":0,
			"byteLength":1960,
			"byteOffset":3714084,
			"target":34962
		},
		{
			"buffer":0,
			"byteLength":2568,
			"byteOffset":3716044,
			"target":34963
		},
		{
			"buffer":0,
			"byteLength":2940,
			"byteOffset":3718612,
			"target":34962
		},
		{
			"buffer":0,
			"byteLength":2940,
			"byteOffset":3721552,
			"target":34962
		},
		{
			"buffer":0,
			"byteLength":1960,
			"byteOffset":3724492,
			"target":34962
		},
		{
			"buffer":0,
			"byteLength":2568,
			"byteOffset":3726452,
			"target":34963
		},
		{
			"buffer":0,
			"byteLength":46236,
			"byteOffset":3729020,
			"target":34962
		},
		{
			"buffer":0,
			"byteLength":46236,
			"byteOffset":3775256,
			"target":34962
		},
		{
			"buffer":0,
			"byteLength":30824,
			"byteOffset":3821492,
			"target":34962
		},
		{
			"buffer":0,
			"byteLength":31812,
			"byteOffset":3852316,
			"target":34963
		},
		{
			"buffer":0,
			"byteLength":47184,
			"byteOffset":3884128,
			"target":34962
		},
		{
			"buffer":0,
			"byteLength":47184,
			"byteOffset":3931312,
			"target":34962
		},
		{
			"buffer":0,
			"byteLength":31456,
			"byteOffset":3978496,
			"target":34962
		},
		{
			"buffer":0,
			"byteLength":31812,
			"byteOffset":4009952,
			"target":34963
		},
		{
			"buffer":0,
			"byteLength":310032,
			"byteOffset":4041764,
			"target":34962
		},
		{
			"buffer":0,
			"byteLength":310032,
			"byteOffset":4351796,
			"target":34962
		},
		{
			"buffer":0,
			"byteLength":82716,
			"byteOffset":4661828,
			"target":34963
		},
		{
			"buffer":0,
			"byteLength":91632,
			"byteOffset":4744544,
			"target":34962
		},
		{
			"buffer":0,
			"byteLength":91632,
			"byteOffset":4836176,
			"target":34962
		},
		{
			"buffer":0,
			"byteLength":28008,
			"byteOffset":4927808,
			"target":34963
		},
		{
			"buffer":0,
			"byteLength":84960,
			"byteOffset":4955816,
			"target":34962
		},
		{
			"buffer":0,
			"byteLength":84960,
			"byteOffset":5040776,
			"target":34962
		},
		{
			"buffer":0,
			"byteLength":25956,
			"byteOffset":5125736,
			"target":34963
		},
		{
			"buffer":0,
			"byteLength":85728,
			"byteOffset":5151692,
			"target":34962
		},
		{
			"buffer":0,
			"byteLength":85728,
			"byteOffset":5237420,
			"target":34962
		},
		{
			"buffer":0,
			"byteLength":26196,
			"byteOffset":5323148,
			"target":34963
		},
		{
			"buffer":0,
			"byteLength":83376,
			"byteOffset":5349344,
			"target":34962
		},
		{
			"buffer":0,
			"byteLength":83376,
			"byteOffset":5432720,
			"target":34962
		},
		{
			"buffer":0,
			"byteLength":25476,
			"byteOffset":5516096,
			"target":34963
		},
		{
			"buffer":0,
			"byteLength":89856,
			"byteOffset":5541572,
			"target":34962
		},
		{
			"buffer":0,
			"byteLength":89856,
			"byteOffset":5631428,
			"target":34962
		},
		{
			"buffer":0,
			"byteLength":27456,
			"byteOffset":5721284,
			"target":34963
		},
		{
			"buffer":0,
			"byteLength":84720,
			"byteOffset":5748740,
			"target":34962
		},
		{
			"buffer":0,
			"byteLength":84720,
			"byteOffset":5833460,
			"target":34962
		},
		{
			"buffer":0,
			"byteLength":25896,
			"byteOffset":5918180,
			"target":34963
		},
		{
			"buffer":0,
			"byteLength":33696,
			"byteOffset":5944076,
			"target":34962
		},
		{
			"buffer":0,
			"byteLength":33696,
			"byteOffset":5977772,
			"target":34962
		},
		{
			"buffer":0,
			"byteLength":10296,
			"byteOffset":6011468,
			"target":34963
		},
		{
			"buffer":0,
			"byteLength":281424,
			"byteOffset":6021764,
			"target":34962
		},
		{
			"buffer":0,
			"byteLength":281424,
			"byteOffset":6303188,
			"target":34962
		},
		{
			"buffer":0,
			"byteLength":74784,
			"byteOffset":6584612,
			"target":34963
		},
		{
			"buffer":0,
			"byteLength":76032,
			"byteOffset":6659396,
			"target":34962
		},
		{
			"buffer":0,
			"byteLength":76032,
			"byteOffset":6735428,
			"target":34962
		},
		{
			"buffer":0,
			"byteLength":23232,
			"byteOffset":6811460,
			"target":34963
		},
		{
			"buffer":0,
			"byteLength":82080,
			"byteOffset":6834692,
			"target":34962
		},
		{
			"buffer":0,
			"byteLength":82080,
			"byteOffset":6916772,
			"target":34962
		},
		{
			"buffer":0,
			"byteLength":25080,
			"byteOffset":6998852,
			"target":34963
		},
		{
			"buffer":0,
			"byteLength":83808,
			"byteOffset":7023932,
			"target":34962
		},
		{
			"buffer":0,
			"byteLength":83808,
			"byteOffset":7107740,
			"target":34962
		},
		{
			"buffer":0,
			"byteLength":25596,
			"byteOffset":7191548,
			"target":34963
		},
		{
			"buffer":0,
			"byteLength":89520,
			"byteOffset":7217144,
			"target":34962
		},
		{
			"buffer":0,
			"byteLength":89520,
			"byteOffset":7306664,
			"target":34962
		},
		{
			"buffer":0,
			"byteLength":27372,
			"byteOffset":7396184,
			"target":34963
		},
		{
			"buffer":0,
			"byteLength":84672,
			"byteOffset":7423556,
			"target":34962
		},
		{
			"buffer":0,
			"byteLength":84672,
			"byteOffset":7508228,
			"target":34962
		},
		{
			"buffer":0,
			"byteLength":25872,
			"byteOffset":7592900,
			"target":34963
		},
		{
			"buffer":0,
			"byteLength":79056,
			"byteOffset":7618772,
			"target":34962
		},
		{
			"buffer":0,
			"byteLength":79056,
			"byteOffset":7697828,
			"target":34962
		},
		{
			"buffer":0,
			"byteLength":24156,
			"byteOffset":7776884,
			"target":34963
		},
		{
			"buffer":0,
			"byteLength":29808,
			"byteOffset":7801040,
			"target":34962
		},
		{
			"buffer":0,
			"byteLength":29808,
			"byteOffset":7830848,
			"target":34962
		},
		{
			"buffer":0,
			"byteLength":9108,
			"byteOffset":7860656,
			"target":34963
		},
		{
			"buffer":0,
			"byteLength":98040,
			"byteOffset":7869764,
			"target":34962
		},
		{
			"buffer":0,
			"byteLength":98040,
			"byteOffset":7967804,
			"target":34962
		},
		{
			"buffer":0,
			"byteLength":65360,
			"byteOffset":8065844,
			"target":34962
		},
		{
			"buffer":0,
			"byteLength":65360,
			"byteOffset":8131204,
			"target":34962
		},
		{
			"buffer":0,
			"byteLength":69120,
			"byteOffset":8196564,
			"target":34963
		},
		{
			"buffer":0,
			"byteLength":625116,
			"byteOffset":8265684,
			"target":34962
		},
		{
			"buffer":0,
			"byteLength":625116,
			"byteOffset":8890800,
			"target":34962
		},
		{
			"buffer":0,
			"byteLength":416744,
			"byteOffset":9515916,
			"target":34962
		},
		{
			"buffer":0,
			"byteLength":416744,
			"byteOffset":9932660,
			"target":34962
		},
		{
			"buffer":0,
			"byteLength":607656,
			"byteOffset":10349404,
			"target":34963
		},
		{
			"buffer":0,
			"byteLength":2502252,
			"byteOffset":10957060,
			"target":34962
		},
		{
			"buffer":0,
			"byteLength":2502252,
			"byteOffset":13459312,
			"target":34962
		},
		{
			"buffer":0,
			"byteLength":1668168,
			"byteOffset":15961564,
			"target":34962
		},
		{
			"buffer":0,
			"byteLength":1668168,
			"byteOffset":17629732,
			"target":34962
		},
		{
			"buffer":0,
			"byteLength":4891728,
			"byteOffset":19297900,
			"target":34963
		},
		{
			"buffer":0,
			"byteLength":29592,
			"byteOffset":24189628,
			"target":34962
		},
		{
			"buffer":0,
			"byteLength":29592,
			"byteOffset":24219220,
			"target":34962
		},
		{
			"buffer":0,
			"byteLength":19728,
			"byteOffset":24248812,
			"target":34962
		},
		{
			"buffer":0,
			"byteLength":19728,
			"byteOffset":24268540,
			"target":34962
		},
		{
			"buffer":0,
			"byteLength":8376,
			"byteOffset":24288268,
			"target":34963
		}
	],
	"samplers":[
		{
			"magFilter":9729,
			"minFilter":9987
		}
	],
	"buffers":[
		{
			"byteLength":24296644,
			"uri":"tier2.bin"
		}
	]
}
